<svg aria-hidden="true" style="width:0;height:0;position:absolute;overflow:hidden" xmlns="http://www.w3.org/2000/svg"><defs><symbol id="icon-youtube" viewBox="0 0 32 32"><path d="M31.331 8.248A4.023 4.023 0 0 0 28.502 5.4c-2.495-.672-12.501-.672-12.501-.672s-10.007 0-12.503.672A4.02 4.02 0 0 0 .67 8.248C.001 10.76.001 16 .001 16s0 5.24.669 7.752A4.023 4.023 0 0 0 3.499 26.6c2.495.672 12.501.672 12.501.672s10.007 0 12.503-.672a4.023 4.023 0 0 0 2.829-2.848C32 21.24 32 16 32 16s0-5.24-.669-7.752zM12.728 20.759v-9.517l8.363 4.759-8.363 4.759z"/></symbol></defs></svg>