<svg aria-hidden="true" style="width:0;height:0;position:absolute;overflow:hidden" xmlns="http://www.w3.org/2000/svg"><defs><symbol id="icon-slesh" viewBox="0 0 12 20"><path d="M10.848.938 4.203 19.465H1.988L8.644.938h2.203z"/></symbol><symbol id="icon-close" viewBox="0 0 32 32"><path d="M23.733 10.304 22.229 8.8l-5.963 5.963L10.303 8.8l-1.504 1.504 5.963 5.963-5.963 5.963 1.504 1.504 5.963-5.963 5.963 5.963 1.504-1.504-5.963-5.963 5.963-5.963z"/></symbol><symbol id="icon-moon" viewBox="0 0 32 32"><path d="M10.895 7.574c0 7.55 5.179 13.67 11.567 13.67 1.588 0 3.101-.38 4.479-1.063-1.695 4.46-5.996 7.636-11.051 7.636-6.533 0-11.83-5.297-11.83-11.83 0-4.82 2.888-8.959 7.023-10.803a16.16 16.16 0 0 0-.188 2.39z"/></symbol><symbol id="icon-sun" viewBox="0 0 32 32"><path d="M8.031 16.5c0 4.143 3.358 7.5 7.5 7.5s7.5-3.357 7.5-7.5-3.357-7.5-7.5-7.5a7.5 7.5 0 0 0-7.5 7.5zm7.5-12.75-2.109 4.219h4.219l-2.11-4.219zm9.012 3.707-4.475 1.491 2.982 2.983 1.493-4.474zM10.994 8.948 6.52 7.457l1.491 4.475 2.983-2.984zm-4.025 5.411-4.219 2.11 4.219 2.109v-4.219zm17.062 4.282 4.219-2.109-4.219-2.109v4.218zm-8.5 10.609 2.109-4.219h-4.219l2.11 4.219zm4.537-5.198 4.475 1.491-1.492-4.475-2.983 2.984zM6.52 25.543l4.475-1.491-2.983-2.983-1.492 4.474z"/></symbol><symbol id="arrow_up" viewBox="0 0 24 24"><path d="M7.406 15.422 6 14.016l6-6 6 6-1.406 1.406L12 10.828z"/><symbol id="icon-arrow-circle-up" viewBox="0 0 24 28"><path d="M20.062 13.984a.98.98 0 0 0-.281-.703l-7.078-7.078c-.187-.187-.438-.281-.703-.281s-.516.094-.703.281l-7.078 7.078c-.187.187-.281.438-.281.703s.094.516.281.703l1.422 1.422c.187.187.438.281.703.281s.516-.094.703-.281L10 13.156V21c0 .547.453 1 1 1h2c.547 0 1-.453 1-1v-7.844l2.953 2.953c.187.187.438.297.703.297s.516-.109.703-.297l1.422-1.422a.981.981 0 0 0 .281-.703zM24 14c0 6.625-5.375 12-12 12S0 20.625 0 14 5.375 2 12 2s12 5.375 12 12z"/></symbol></symbol></defs></svg>