<svg aria-hidden="true" style="position: absolute; width: 0; height: 0; overflow: hidden;" version="1.1" xmlns="http://www.w3.org/2000/svg" xmlns:xlink="http://www.w3.org/1999/xlink">
<defs>
<symbol id="icon-youtube-1" viewBox="0 0 32 32">
<path d="M31.331 8.248c-0.368-1.385-1.452-2.477-2.829-2.848-2.495-0.672-12.501-0.672-12.501-0.672s-10.007 0-12.503 0.672c-1.376 0.371-2.46 1.461-2.828 2.848-0.669 2.512-0.669 7.752-0.669 7.752s0 5.24 0.669 7.752c0.368 1.385 1.452 2.477 2.829 2.848 2.495 0.672 12.501 0.672 12.501 0.672s10.007 0 12.503-0.672c1.376-0.371 2.46-1.461 2.829-2.848 0.668-2.512 0.668-7.752 0.668-7.752s0-5.24-0.669-7.752zM12.728 20.759v-9.517l8.363 4.759-8.363 4.759z"></path>
</symbol>
</defs>
</svg>
